<svg width="103" height="29" viewBox="0 0 103 29" fill="none" xmlns="http://www.w3.org/2000/svg">
<g filter="url(#filter0_dd_0_1)">
<g clip-path="url(#clip0_0_1)">
<rect x="3" y="2" width="22.5352" height="23" rx="8" fill="white"/>
<rect x="3" y="2" width="22.5352" height="23" rx="8" fill="url(#paint0_linear_0_1)"/>
<path fill-rule="evenodd" clip-rule="evenodd" d="M14.2676 3.4654C8.83765 3.4654 4.4358 7.95804 4.4358 13.5C4.4358 19.0419 8.83765 23.5346 14.2676 23.5346C19.6976 23.5346 24.0994 19.0419 24.0994 13.5C24.0994 7.95804 19.6976 3.4654 14.2676 3.4654ZM4.3811 13.5C4.3811 7.92721 8.80744 3.40958 14.2676 3.40958C19.7278 3.40958 24.1541 7.92721 24.1541 13.5C24.1541 19.0728 19.7278 23.5904 14.2676 23.5904C8.80744 23.5904 4.3811 19.0728 4.3811 13.5Z" fill="#D0D5DD"/>
<path fill-rule="evenodd" clip-rule="evenodd" d="M14.2676 10.681C12.7421 10.681 11.5054 11.9432 11.5054 13.5002C11.5054 15.0571 12.7421 16.3193 14.2676 16.3193C15.7931 16.3193 17.0298 15.0571 17.0298 13.5002C17.0298 11.9432 15.7931 10.681 14.2676 10.681ZM11.4507 13.5002C11.4507 11.9123 12.7119 10.6252 14.2676 10.6252C15.8233 10.6252 17.0845 11.9123 17.0845 13.5002C17.0845 15.088 15.8233 16.3752 14.2676 16.3752C12.7119 16.3752 11.4507 15.088 11.4507 13.5002Z" fill="#D0D5DD"/>
<path fill-rule="evenodd" clip-rule="evenodd" d="M14.2676 11.5738C13.2254 11.5738 12.3806 12.4361 12.3806 13.4998C12.3806 14.5635 13.2254 15.4257 14.2676 15.4257C15.3098 15.4257 16.1547 14.5635 16.1547 13.4998C16.1547 12.4361 15.3098 11.5738 14.2676 11.5738ZM12.3259 13.4998C12.3259 12.4053 13.1952 11.518 14.2676 11.518C15.34 11.518 16.2094 12.4053 16.2094 13.4998C16.2094 14.5943 15.34 15.4816 14.2676 15.4816C13.1952 15.4816 12.3259 14.5943 12.3259 13.4998Z" fill="#D0D5DD"/>
<path d="M14.2402 2H14.2949V25H14.2402V2Z" fill="#D0D5DD"/>
<path d="M25.5352 13.4719L25.5352 13.5277L3.00001 13.5277L3.00001 13.4719L25.5352 13.4719Z" fill="#D0D5DD"/>
<path d="M21.7338 2H21.7885V25H21.7338V2Z" fill="#D0D5DD"/>
<path d="M10.4935 2H10.5482V25H10.4935V2Z" fill="#D0D5DD"/>
<path d="M17.987 2H18.0417V25H17.987V2Z" fill="#D0D5DD"/>
<path d="M6.74677 2H6.80146V25H6.74677V2Z" fill="#D0D5DD"/>
<path d="M25.5352 21.1199L25.5352 21.1757L3.00001 21.1757L3.00001 21.1199L25.5352 21.1199Z" fill="#D0D5DD"/>
<path d="M25.5352 9.64795L25.5352 9.70377L3.00001 9.70377L3.00001 9.64795L25.5352 9.64795Z" fill="#D0D5DD"/>
<path d="M25.5352 17.2959L25.5352 17.3517L3.00001 17.3517L3.00001 17.2959L25.5352 17.2959Z" fill="#D0D5DD"/>
<path d="M25.5352 5.82397L25.5352 5.8798L3.00001 5.8798L3.00001 5.82397L25.5352 5.82397Z" fill="#D0D5DD"/>
<g filter="url(#filter1_dd_0_1)">
<ellipse cx="14.2676" cy="13.5" rx="5.6338" ry="5.75" fill="url(#paint1_linear_0_1)"/>
</g>
<g filter="url(#filter2_b_0_1)">
<path d="M3 13.5H25.5352V13.7324C25.5352 16.7737 25.5352 18.2943 25.1271 19.5226C24.3314 21.9173 22.4525 23.7962 20.0578 24.5919C18.8295 25 17.3089 25 14.2676 25V25C11.2263 25 9.70569 25 8.47742 24.5919C6.08272 23.7962 4.20382 21.9173 3.40812 19.5226C3 18.2943 3 16.7737 3 13.7324V13.5Z" fill="white" fill-opacity="0.2"/>
</g>
</g>
<rect x="3.1" y="2.1" width="22.3352" height="22.8" rx="7.9" stroke="#D0D5DD" stroke-width="0.2"/>
</g>
<path d="M39.1646 8.07594V14.8244C39.1646 16.2436 38.2043 17.2645 36.6438 17.2645C35.0883 17.2645 34.1229 16.2436 34.1229 14.8244V8.07594H32.5775V14.952C32.5775 17.1471 34.188 18.704 36.6438 18.704C39.0995 18.704 40.7151 17.1471 40.7151 14.952V8.07594H39.1646Z" fill="#101828"/>
<path d="M44.3375 13.8749C44.3375 12.6243 45.0877 11.9096 46.128 11.9096C47.1434 11.9096 47.7586 12.5885 47.7586 13.7269V18.5305H49.254V13.5431C49.254 11.6033 48.2087 10.5875 46.6382 10.5875C45.4828 10.5875 44.7276 11.1337 44.3725 11.9658H44.2774V10.6896H42.842V18.5305H44.3375V13.8749Z" fill="#101828"/>
<path d="M54.8458 10.6896H53.2703V8.81102H51.7748V10.6896H50.6495V11.9147H51.7748V16.5447C51.7698 17.969 52.8352 18.6581 54.0156 18.6326C54.4907 18.6275 54.8108 18.5356 54.9859 18.4692L54.7158 17.2084C54.6158 17.2288 54.4307 17.2747 54.1906 17.2747C53.7055 17.2747 53.2703 17.1114 53.2703 16.2282V11.9147H54.8458V10.6896Z" fill="#101828"/>
<path d="M56.5001 18.5305H57.9956V10.6896H56.5001V18.5305ZM57.2554 9.47975C57.7705 9.47975 58.2007 9.07137 58.2007 8.5711C58.2007 8.07083 57.7705 7.65735 57.2554 7.65735C56.7352 7.65735 56.31 8.07083 56.31 8.5711C56.31 9.07137 56.7352 9.47975 57.2554 9.47975Z" fill="#101828"/>
<path d="M63.5936 10.6896H62.0181V8.81102H60.5226V10.6896H59.3973V11.9147H60.5226V16.5447C60.5176 17.969 61.583 18.6581 62.7634 18.6326C63.2385 18.6275 63.5586 18.5356 63.7337 18.4692L63.4636 17.2084C63.3636 17.2288 63.1785 17.2747 62.9384 17.2747C62.4533 17.2747 62.0181 17.1114 62.0181 16.2282V11.9147H63.5936V10.6896Z" fill="#101828"/>
<path d="M66.9084 8.07594H65.413V18.5305H66.9084V8.07594Z" fill="#101828"/>
<path d="M72.2314 18.6887C73.9069 18.6887 75.0923 17.8464 75.4324 16.5703L74.017 16.3099C73.7469 17.0501 73.0967 17.4279 72.2464 17.4279C70.966 17.4279 70.1057 16.5805 70.0657 15.0695H75.5275V14.5284C75.5275 11.6952 73.8669 10.5875 72.1264 10.5875C69.9857 10.5875 68.5752 12.2516 68.5752 14.6611C68.5752 17.096 69.9657 18.6887 72.2314 18.6887ZM70.0707 13.926C70.1307 12.8132 70.921 11.8484 72.1364 11.8484C73.2967 11.8484 74.057 12.7264 74.062 13.926H70.0707Z" fill="#101828"/>
<path d="M80.0626 18.6836C81.4631 18.6836 82.0133 17.8107 82.2834 17.3104H82.4084V18.5305H83.8689V8.07594H82.3734V11.9607H82.2834C82.0133 11.4757 81.5031 10.5875 80.0726 10.5875C78.2171 10.5875 76.8516 12.0832 76.8516 14.6253C76.8516 17.1624 78.197 18.6836 80.0626 18.6836ZM80.3928 17.3819C79.0573 17.3819 78.3621 16.1823 78.3621 14.61C78.3621 13.0531 79.0423 11.8841 80.3928 11.8841C81.6982 11.8841 82.3984 12.9714 82.3984 14.61C82.3984 16.2589 81.6832 17.3819 80.3928 17.3819Z" fill="#101828"/>
<path d="M96.4379 8.07594V14.8244C96.4379 16.2436 95.4776 17.2645 93.9171 17.2645C92.3616 17.2645 91.3963 16.2436 91.3963 14.8244V8.07594H89.8508V14.952C89.8508 17.1471 91.4613 18.704 93.9171 18.704C96.3729 18.704 97.9884 17.1471 97.9884 14.952V8.07594H96.4379Z" fill="#101828"/>
<path d="M101.781 8.07594H100.235V18.5305H101.781V8.07594Z" fill="#101828"/>
<defs>
<filter id="filter0_dd_0_1" x="0" y="0" width="28.5352" height="29" filterUnits="userSpaceOnUse" color-interpolation-filters="sRGB">
<feFlood flood-opacity="0" result="BackgroundImageFix"/>
<feColorMatrix in="SourceAlpha" type="matrix" values="0 0 0 0 0 0 0 0 0 0 0 0 0 0 0 0 0 0 127 0" result="hardAlpha"/>
<feOffset dy="1"/>
<feGaussianBlur stdDeviation="1"/>
<feColorMatrix type="matrix" values="0 0 0 0 0.0627451 0 0 0 0 0.0941176 0 0 0 0 0.156863 0 0 0 0.06 0"/>
<feBlend mode="normal" in2="BackgroundImageFix" result="effect1_dropShadow_0_1"/>
<feColorMatrix in="SourceAlpha" type="matrix" values="0 0 0 0 0 0 0 0 0 0 0 0 0 0 0 0 0 0 127 0" result="hardAlpha"/>
<feOffset dy="1"/>
<feGaussianBlur stdDeviation="1.5"/>
<feColorMatrix type="matrix" values="0 0 0 0 0.0627451 0 0 0 0 0.0941176 0 0 0 0 0.156863 0 0 0 0.1 0"/>
<feBlend mode="normal" in2="effect1_dropShadow_0_1" result="effect2_dropShadow_0_1"/>
<feBlend mode="normal" in="SourceGraphic" in2="effect2_dropShadow_0_1" result="shape"/>
</filter>
<filter id="filter1_dd_0_1" x="5.63379" y="5.75" width="17.2676" height="17.5" filterUnits="userSpaceOnUse" color-interpolation-filters="sRGB">
<feFlood flood-opacity="0" result="BackgroundImageFix"/>
<feColorMatrix in="SourceAlpha" type="matrix" values="0 0 0 0 0 0 0 0 0 0 0 0 0 0 0 0 0 0 127 0" result="hardAlpha"/>
<feOffset dy="1"/>
<feGaussianBlur stdDeviation="1"/>
<feColorMatrix type="matrix" values="0 0 0 0 0.0627451 0 0 0 0 0.0941176 0 0 0 0 0.156863 0 0 0 0.06 0"/>
<feBlend mode="normal" in2="BackgroundImageFix" result="effect1_dropShadow_0_1"/>
<feColorMatrix in="SourceAlpha" type="matrix" values="0 0 0 0 0 0 0 0 0 0 0 0 0 0 0 0 0 0 127 0" result="hardAlpha"/>
<feOffset dy="1"/>
<feGaussianBlur stdDeviation="1.5"/>
<feColorMatrix type="matrix" values="0 0 0 0 0.0627451 0 0 0 0 0.0941176 0 0 0 0 0.156863 0 0 0 0.1 0"/>
<feBlend mode="normal" in2="effect1_dropShadow_0_1" result="effect2_dropShadow_0_1"/>
<feBlend mode="normal" in="SourceGraphic" in2="effect2_dropShadow_0_1" result="shape"/>
</filter>
<filter id="filter2_b_0_1" x="-2" y="8.5" width="32.5352" height="21.5" filterUnits="userSpaceOnUse" color-interpolation-filters="sRGB">
<feFlood flood-opacity="0" result="BackgroundImageFix"/>
<feGaussianBlur in="BackgroundImageFix" stdDeviation="2.5"/>
<feComposite in2="SourceAlpha" operator="in" result="effect1_backgroundBlur_0_1"/>
<feBlend mode="normal" in="SourceGraphic" in2="effect1_backgroundBlur_0_1" result="shape"/>
</filter>
<linearGradient id="paint0_linear_0_1" x1="14.2676" y1="2" x2="14.2676" y2="25" gradientUnits="userSpaceOnUse">
<stop stop-color="white"/>
<stop offset="1" stop-color="#D0D5DD"/>
</linearGradient>
<linearGradient id="paint1_linear_0_1" x1="11.4507" y1="19.25" x2="17.2708" y2="7.84506" gradientUnits="userSpaceOnUse">
<stop stop-color="#53389E"/>
<stop offset="1" stop-color="#6941C6"/>
</linearGradient>
<clipPath id="clip0_0_1">
<rect x="3" y="2" width="22.5352" height="23" rx="8" fill="white"/>
</clipPath>
</defs>
</svg>
