<svg width="15" height="15" viewBox="0 0 15 15" fill="none" xmlns="http://www.w3.org/2000/svg">
<path d="M2.9045 2.9045L5.6605 5.6605M9.3395 9.3395L12.0955 12.0955M12.0955 2.9045L9.3395 5.6605L11.634 3.366M2.9045 12.0955L5.6605 9.3395M14 7.5C14 11.0899 11.0899 14 7.5 14C3.91015 14 1 11.0899 1 7.5C1 3.91015 3.91015 1 7.5 1C11.0899 1 14 3.91015 14 7.5ZM10.1 7.5C10.1 8.93594 8.93594 10.1 7.5 10.1C6.06406 10.1 4.9 8.93594 4.9 7.5C4.9 6.06406 6.06406 4.9 7.5 4.9C8.93594 4.9 10.1 6.06406 10.1 7.5Z" stroke="#667085" stroke-width="2" stroke-linecap="round" stroke-linejoin="round"/>
</svg>
