<svg width="18" height="15" viewBox="0 0 18 15" fill="none" xmlns="http://www.w3.org/2000/svg">
<path d="M12.6364 14V12.5556C12.6364 11.7894 12.3299 11.0546 11.7843 10.5128C11.2388 9.97103 10.4988 9.66667 9.72727 9.66667H3.90909C3.13755 9.66667 2.39761 9.97103 1.85205 10.5128C1.30649 11.0546 1 11.7894 1 12.5556V14M17 14V12.5556C16.9995 11.9155 16.785 11.2937 16.3901 10.7878C15.9952 10.2819 15.4423 9.92058 14.8182 9.76056M11.9091 1.09389C12.5348 1.253 13.0895 1.6144 13.4856 2.12111C13.8816 2.62783 14.0966 3.25104 14.0966 3.8925C14.0966 4.53396 13.8816 5.15717 13.4856 5.66389C13.0895 6.1706 12.5348 6.532 11.9091 6.69111M9.72727 3.88889C9.72727 5.48438 8.42483 6.77778 6.81818 6.77778C5.21154 6.77778 3.90909 5.48438 3.90909 3.88889C3.90909 2.2934 5.21154 1 6.81818 1C8.42483 1 9.72727 2.2934 9.72727 3.88889Z" stroke="#667085" stroke-width="2" stroke-linecap="round" stroke-linejoin="round"/>
</svg>
